<?xml version="1.0" encoding="utf-8"?>
<!-- Generator: Adobe Illustrator 21.0.0, SVG Export Plug-In . SVG Version: 6.00 Build 0)  -->
<svg version="1.1" id="Layer_1" xmlns="http://www.w3.org/2000/svg" xmlns:xlink="http://www.w3.org/1999/xlink" x="0px" y="0px"
	 viewBox="0 0 30 30" style="enable-background:new 0 0 30 30;" xml:space="preserve">
<path d="M7.5,9.6c0,0.5,0.1,0.9,0.5,1.3c0.4,0.4,0.8,0.5,1.3,0.5c0.5,0,0.9-0.1,1.3-0.5l2.5-2.4v15c0,0.5,0.2,0.9,0.5,1.3
	c0.4,0.3,0.8,0.5,1.4,0.5c0.5,0,0.9-0.1,1.3-0.5c0.4-0.3,0.6-0.8,0.6-1.3v-15l2.4,2.4c0.3,0.3,0.8,0.5,1.3,0.5c0.5,0,1-0.2,1.3-0.5
	c0.4-0.3,0.5-0.8,0.5-1.3c0-0.5-0.2-0.9-0.6-1.2l-5.5-5.6C16,2.5,15.6,2.3,15,2.2c-0.5,0-1,0.2-1.4,0.6L8.1,8.4
	C7.7,8.7,7.5,9.1,7.5,9.6z"/>
</svg>
