<?xml version="1.0" encoding="utf-8"?>
<!-- Generator: Adobe Illustrator 21.0.0, SVG Export Plug-In . SVG Version: 6.00 Build 0)  -->
<svg version="1.1" id="Layer_1" xmlns="http://www.w3.org/2000/svg" xmlns:xlink="http://www.w3.org/1999/xlink" x="0px" y="0px"
	 viewBox="0 0 30 30" style="enable-background:new 0 0 30 30;" xml:space="preserve">
<path d="M22.5,17.9c0-0.5-0.1-0.9-0.5-1.3c-0.4-0.4-0.8-0.5-1.3-0.5c-0.5,0-0.9,0.1-1.3,0.5L16.9,19V4c0-0.5-0.2-0.9-0.5-1.3
	S15.6,2.2,15,2.2c-0.5,0-0.9,0.1-1.3,0.5C13.3,3,13.1,3.5,13.1,4v15l-2.4-2.4C10.3,16.2,9.9,16,9.4,16c-0.5,0-1,0.2-1.3,0.5
	c-0.4,0.3-0.5,0.8-0.5,1.3c0,0.5,0.2,0.9,0.6,1.2l5.5,5.6c0.4,0.3,0.8,0.5,1.4,0.6c0.5,0,1-0.2,1.4-0.6l5.6-5.5
	C22.3,18.8,22.5,18.4,22.5,17.9z"/>
</svg>
